<svg xmlns="http://www.w3.org/2000/svg" viewBox="0 0 100.37 36.99"><defs><style>.cls-1{fill:#0f3052;}</style></defs><title>logo_blauw_1</title><g id="Laag_2" data-name="Laag 2"><g id="Laag_1-2" data-name="Laag 1"><path class="cls-1" d="M18.49,37A18.5,18.5,0,0,1,11.3,1.45a18.5,18.5,0,0,1,14.4,34.08A18.38,18.38,0,0,1,18.49,37Zm0-36a17.5,17.5,0,0,0-6.81,33.62A17.5,17.5,0,0,0,25.3,2.37,17.39,17.39,0,0,0,18.49,1Z"/><path class="cls-1" d="M8.56,19.79H6.32v2.05h-2V15.72H9v1.72H6.32v.81H8.56Z"/><path class="cls-1" d="M9.34,16.07a.93.93,0,0,1,.32-.73,1.16,1.16,0,0,1,.8-.29,1.18,1.18,0,0,1,.81.29,1,1,0,0,1,0,1.44,1.18,1.18,0,0,1-.81.29,1.16,1.16,0,0,1-.81-.29A.93.93,0,0,1,9.34,16.07Zm.18,5.77V17.28h1.9v4.56Z"/><path class="cls-1" d="M17.2,17.28l-1.59,2.19,1.68,2.37H15.11l-.66-1.08-.7,1.08H11.68l1.68-2.31-1.59-2.26h2.18l.57,1,.61-1Z"/><path class="cls-1" d="M17.68,15.72h3a2.31,2.31,0,0,1,1.49.45,1.43,1.43,0,0,1,.56,1.17A1.52,1.52,0,0,1,22,18.66a1.65,1.65,0,0,1,.73.58,1.5,1.5,0,0,1,.26.87,1.54,1.54,0,0,1-.6,1.24,2.32,2.32,0,0,1-1.53.49H17.68Zm2,2.32h.52q.51,0,.51-.4t-.51-.41h-.52Zm0,1.38v.94h.76a.57.57,0,0,0,.41-.14.47.47,0,0,0,0-.67.57.57,0,0,0-.41-.14Z"/><path class="cls-1" d="M26.33,19.68v-2.4h1.88v4.56H26.52l-.06-.52a1.59,1.59,0,0,1-1.3.6,1.59,1.59,0,0,1-1.67-1.68v-3h1.88v2.4q0,.52.46.52a.49.49,0,0,0,.37-.14A.54.54,0,0,0,26.33,19.68Z"/><path class="cls-1" d="M31.3,18.95a2.5,2.5,0,0,1,1,.61,1.2,1.2,0,0,1,.36.84,1.34,1.34,0,0,1-.52,1.12,2.31,2.31,0,0,1-1.46.41,3.14,3.14,0,0,1-1.08-.19,2.7,2.7,0,0,1-.74-.37l-.24-.18.74-1.08.21.15a3,3,0,0,0,.46.23,1.56,1.56,0,0,0,.61.14q.17,0,.17-.1t-.71-.39q-1.23-.45-1.23-1.48a1.3,1.3,0,0,1,.51-1,2.12,2.12,0,0,1,1.39-.42,3,3,0,0,1,1,.17,3.28,3.28,0,0,1,.72.32l.23.17L32,19a1.92,1.92,0,0,0-1.12-.46q-.17,0-.17.1T31.3,18.95Z"/><path class="cls-1" d="M33.43,16.63a.7.7,0,0,1,1,0,.68.68,0,0,1,0,1,.7.7,0,0,1-1,0,.68.68,0,0,1,0-1Zm.48,1a.46.46,0,0,0,.34-.15.48.48,0,0,0,.14-.35.48.48,0,1,0-1,0,.48.48,0,0,0,.14.35A.46.46,0,0,0,33.91,17.61Zm-.26-.17v-.66H34a.25.25,0,0,1,.18.06.21.21,0,0,1,.07.16.2.2,0,0,1-.12.2l.14.23H34l-.12-.2h0v.2Zm.28-.49h-.09v.14h.09q.08,0,.08-.07S34,17,33.93,17Z"/><path class="cls-1" d="M42.44,15.5l.37-.22a1.59,1.59,0,0,0,1.68,1.13c.94,0,1.41-.48,1.41-1.12s-.59-.93-1.45-1.2-1.77-.57-1.77-1.54A1.54,1.54,0,0,1,44.37,11a1.88,1.88,0,0,1,1.8,1.18l-.36.2a1.47,1.47,0,0,0-1.44-1,1.12,1.12,0,0,0-1.26,1.08c0,.67.57.88,1.37,1.14,1,.33,1.85.64,1.85,1.61s-.73,1.54-1.84,1.54A2,2,0,0,1,42.44,15.5Z"/><path class="cls-1" d="M53,14.2v2.53h-.4V14.2A1,1,0,0,0,51.55,13c-.67,0-1.2.45-1.2,1.47v2.23H50V14.2c0-.76-.41-1.17-1-1.17s-1.24.45-1.24,1.47v2.23h-.4v-4h.4v.69A1.4,1.4,0,0,1,49,12.65a1.27,1.27,0,0,1,1.25.82,1.46,1.46,0,0,1,1.33-.82A1.4,1.4,0,0,1,53,14.2Z"/><path class="cls-1" d="M58.07,12.74v4h-.41v-.9a1.92,1.92,0,0,1-1.72,1,2.09,2.09,0,0,1,0-4.17,1.92,1.92,0,0,1,1.72,1v-.9Zm-.41,2A1.69,1.69,0,1,0,56,16.44,1.68,1.68,0,0,0,57.67,14.73Z"/><path class="cls-1" d="M61,12.68v.38a1.29,1.29,0,0,0-1.33,1.45v2.22h-.4v-4h.4v.78A1.35,1.35,0,0,1,61,12.68Z"/><path class="cls-1" d="M62.76,13.13v2.6c0,.7.38.72,1.19.65v.36c-1,.16-1.6-.1-1.6-1v-2.6h-.88v-.39h.88v-1l.41-.12v1.12H64v.39Z"/><path class="cls-1" d="M69.11,14.73A2.06,2.06,0,0,1,67,16.82a1.89,1.89,0,0,1-1.72-1v2.53h-.4v-5.6h.4v.93a1.89,1.89,0,0,1,1.72-1A2.06,2.06,0,0,1,69.11,14.73Zm-.4,0a1.7,1.7,0,1,0-1.7,1.7A1.68,1.68,0,0,0,68.71,14.73Z"/><path class="cls-1" d="M73.46,14.25v2.49h-.41V14.25A1.1,1.1,0,0,0,71.88,13c-.78,0-1.4.51-1.4,1.59v2.11h-.4v-5.6h.4V13.5a1.51,1.51,0,0,1,1.43-.85A1.47,1.47,0,0,1,73.46,14.25Z"/><path class="cls-1" d="M74.32,14.73a2.1,2.1,0,1,1,2.1,2.09A2.07,2.07,0,0,1,74.32,14.73Zm3.79,0a1.69,1.69,0,1,0-1.69,1.7A1.68,1.68,0,0,0,78.11,14.73Z"/><path class="cls-1" d="M82.86,14.25v2.49h-.41V14.25A1.1,1.1,0,0,0,81.28,13c-.78,0-1.4.51-1.4,1.59v2.11h-.4v-4h.4v.76a1.51,1.51,0,0,1,1.43-.85A1.47,1.47,0,0,1,82.86,14.25Z"/><path class="cls-1" d="M87.76,14.75c0,.06,0,.13,0,.19H84.13a1.63,1.63,0,0,0,1.69,1.5,1.52,1.52,0,0,0,1.38-.73l.35.21a2,2,0,0,1-1.74.9,2.09,2.09,0,0,1,0-4.17A2,2,0,0,1,87.76,14.75Zm-3.63-.2h3.21A1.55,1.55,0,0,0,85.79,13,1.61,1.61,0,0,0,84.13,14.55Z"/><path class="cls-1" d="M94.61,14.75c0,.06,0,.13,0,.19H91a1.63,1.63,0,0,0,1.69,1.5,1.52,1.52,0,0,0,1.38-.73l.35.21a2,2,0,0,1-1.74.9,2.09,2.09,0,0,1,0-4.17A2,2,0,0,1,94.61,14.75ZM91,14.55H94.2A1.55,1.55,0,0,0,92.64,13,1.61,1.61,0,0,0,91,14.55Z"/><path class="cls-1" d="M98.94,14.25v2.49h-.41V14.25A1.1,1.1,0,0,0,97.35,13c-.78,0-1.4.51-1.4,1.59v2.11h-.4v-4H96v.76a1.51,1.51,0,0,1,1.43-.85A1.47,1.47,0,0,1,98.94,14.25Z"/><path class="cls-1" d="M43.55,22.73v2.6c0,.7.38.72,1.19.65v.36c-1,.16-1.6-.1-1.6-1v-2.6h-.88v-.39h.88v-1l.41-.12v1.12h1.19v.39Z"/><path class="cls-1" d="M49.39,22.34v4H49v-.9a1.92,1.92,0,0,1-1.72,1,2.09,2.09,0,0,1,0-4.17,1.92,1.92,0,0,1,1.72,1v-.9Zm-.41,2A1.69,1.69,0,1,0,47.3,26,1.68,1.68,0,0,0,49,24.34Z"/><path class="cls-1" d="M54.82,24.34a2.06,2.06,0,0,1-2.07,2.09,1.89,1.89,0,0,1-1.72-1v.93h-.4v-5.6H51v2.53a1.89,1.89,0,0,1,1.72-1A2.06,2.06,0,0,1,54.82,24.34Zm-.4,0a1.7,1.7,0,1,0-1.7,1.7A1.68,1.68,0,0,0,54.42,24.34Z"/><path class="cls-1" d="M55.79,20.5h.4v5.84h-.4Z"/><path class="cls-1" d="M61.19,24.35c0,.06,0,.13,0,.19H57.56A1.63,1.63,0,0,0,59.26,26a1.52,1.52,0,0,0,1.38-.73l.35.21a2,2,0,0,1-1.74.9,2.09,2.09,0,1,1,1.94-2.07Zm-3.63-.2h3.21a1.55,1.55,0,0,0-1.56-1.52A1.61,1.61,0,0,0,57.56,24.15Z"/><path class="cls-1" d="M62.87,22.73v2.6c0,.7.38.72,1.19.65v.36c-1,.16-1.6-.1-1.6-1v-2.6h-.88v-.39h.88v-1l.41-.12v1.12h1.19v.39Z"/><path class="cls-1" d="M68.89,22.28v.38a1.29,1.29,0,0,0-1.33,1.45v2.22h-.4v-4h.4v.78A1.35,1.35,0,0,1,68.89,22.28Z"/><path class="cls-1" d="M73.23,24.35c0,.06,0,.13,0,.19H69.6A1.63,1.63,0,0,0,71.3,26a1.52,1.52,0,0,0,1.38-.73l.35.21a2,2,0,0,1-1.74.9,2.09,2.09,0,1,1,1.94-2.07Zm-3.63-.2h3.21a1.55,1.55,0,0,0-1.56-1.52A1.61,1.61,0,0,0,69.6,24.15Z"/><path class="cls-1" d="M78.36,24.34a2.06,2.06,0,0,1-2.07,2.09,1.89,1.89,0,0,1-1.72-1v2.53h-.4v-5.6h.4v.93a1.89,1.89,0,0,1,1.72-1A2.06,2.06,0,0,1,78.36,24.34Zm-.4,0a1.7,1.7,0,1,0-1.7,1.7A1.68,1.68,0,0,0,78,24.34Z"/><path class="cls-1" d="M83.26,22.34v4h-.41v-.9a1.92,1.92,0,0,1-1.72,1,2.09,2.09,0,0,1,0-4.17,1.92,1.92,0,0,1,1.72,1v-.9Zm-.41,2A1.69,1.69,0,1,0,81.17,26,1.68,1.68,0,0,0,82.85,24.34Z"/><path class="cls-1" d="M86.23,22.28v.38a1.29,1.29,0,0,0-1.33,1.45v2.22h-.4v-4h.4v.78A1.35,1.35,0,0,1,86.23,22.28Z"/><path class="cls-1" d="M90.73,22.34v4h-.41v-.9a1.92,1.92,0,0,1-1.72,1,2.09,2.09,0,0,1,0-4.17,1.92,1.92,0,0,1,1.72,1v-.9Zm-.41,2A1.69,1.69,0,1,0,88.63,26,1.68,1.68,0,0,0,90.32,24.34Z"/><path class="cls-1" d="M92.82,22.73v2.6c0,.7.38.72,1.19.65v.36c-1,.16-1.6-.1-1.6-1v-2.6h-.88v-.39h.88v-1l.41-.12v1.12H94v.39Z"/><path class="cls-1" d="M94.85,21a.32.32,0,1,1,.32.32A.32.32,0,0,1,94.85,21ZM95,22.34h.4v4H95Z"/><path class="cls-1" d="M100.37,24.35c0,.06,0,.13,0,.19H96.75A1.63,1.63,0,0,0,98.44,26a1.52,1.52,0,0,0,1.38-.73l.35.21a2,2,0,0,1-1.74.9,2.09,2.09,0,1,1,1.94-2.07Zm-3.63-.2H100a1.55,1.55,0,0,0-1.56-1.52A1.61,1.61,0,0,0,96.75,24.15Z"/></g></g></svg>