<svg xmlns="http://www.w3.org/2000/svg" viewBox="0 0 20.48 19.53"><defs><style>.cls-1{fill:#718bc6;}.cls-2{fill:#d7d9dc;}</style></defs><title>Middel 3</title><g id="Laag_2" data-name="Laag 2"><g id="Laag_1-2" data-name="Laag 1"><path class="cls-1" d="M4.58,19.36a.15.15,0,0,1-.17,0,.16.16,0,0,1-.06-.16l1.13-6.58L.7,8a.14.14,0,0,1,0-.16.16.16,0,0,1,.13-.11l6.6-1,3-6a.16.16,0,0,1,.28,0l3,6,6.61,1a.16.16,0,0,1,.08.27L15.5,12.61l1.13,6.59a.14.14,0,0,1-.06.15.15.15,0,0,1-.17,0l-5.91-3.1Z" transform="translate(-0.25 -0.25)"/><path class="cls-2" d="M4.35,19.19a.16.16,0,0,0,.06.16.15.15,0,0,0,.17,0l5.91-3.1,5.91,3.1a.15.15,0,0,0,.17,0,.14.14,0,0,0,.06-.15L15.5,12.61,20.28,8a.16.16,0,0,0-.08-.27l-6.61-1-3-6a.16.16,0,0,0-.28,0l-3,6-6.6,1a.16.16,0,0,0-.13.11A.14.14,0,0,0,.7,8l4.78,4.66Zm-.17.48A.52.52,0,0,1,4,19.13l1.09-6.38L.42,8.24a.53.53,0,0,1-.14-.57.54.54,0,0,1,.45-.38l6.4-.93L10,.56a.56.56,0,0,1,1,0l2.86,5.8,6.4.93a.53.53,0,0,1,.45.38.53.53,0,0,1-.14.57l-4.63,4.51L17,19.13a.55.55,0,0,1-.23.54.49.49,0,0,1-.33.11.65.65,0,0,1-.26-.06l-5.72-3-5.72,3A.57.57,0,0,1,4.18,19.67Z" transform="translate(-0.25 -0.25)"/></g></g></svg>